<svg id="egwtxOeCYdk1" xmlns="http://www.w3.org/2000/svg" xmlns:xlink="http://www.w3.org/1999/xlink" viewBox="0 0 500 500" shape-rendering="geometricPrecision" text-rendering="geometricPrecision"><g><path d="M30.71,160.76c1.377517-.831896,2.860868-1.474345,4.41-1.91l.9-4.37l7.38-.13l1.06,4.33c1.561366.386128,3.064515.977972,4.47,1.76L52.66,158l5.3,5.12-2.31,3.81c.830925,1.379286,1.476481,2.862048,1.92,4.41l4.36.91.13,7.37-4.33,1.06c-.376637,1.559892-.958369,3.062981-1.73,4.47l2.44,3.73-5.12,5.3-3.81-2.31c-1.377153.83505-2.860481,1.480853-4.41,1.92l-.9,4.36-7.38.13L35.73,194c-1.56276-.381745-3.066482-.973815-4.47-1.76l-3.73,2.45-5.3-5.13l2.31-3.81c-.830849-1.375779-1.476427-2.855228-1.92-4.4l-4.36-.91-.13-7.44l4.33-1c.386077-1.564559.977901-3.071021,1.76-4.48l-2.44-3.72l5.12-5.31l3.81,2.31Zm3.93,9.82c-2.224898,2.299846-2.844973,5.713642-1.570992,8.649018s4.191028,4.814027,7.390482,4.759653s6.050981-2.031059,7.224484-5.008029.437786-6.367725-1.863974-8.590642c-3.140485-3.032913-8.144385-2.947873-11.18.19Z" fill="#f5f5f5"/><path d="M286.14,37.2c1.171661-.708242,2.432862-1.256444,3.75-1.63l.78-3.72l6.27-.11.9,3.69c1.330937.323988,2.612375.825127,3.81,1.49l3.17-2.08l4.52,4.36-2,3.25c.720412,1.169158,1.27884,2.430667,1.66,3.75l3.72.77.11,6.28-3.69.9c-.324809,1.332178-.829441,2.613944-1.5,3.81l2.08,3.17-4.36,4.51-3.24-2c-1.172857.705924-2.433741,1.253988-3.75,1.63L297.6,69l-6.28.11-.9-3.68c-1.329895-.331972-2.610731-.836238-3.81-1.5L283.44,66l-4.51-4.36l2-3.24c-.710029-1.174288-1.258312-2.439038-1.63-3.76l-3.71-.77-.11-6.27l3.68-.91c.329251-1.327588.833676-2.605467,1.5-3.8l-2.08-3.18l4.36-4.51l3.24,2Zm3.35,8.35c-2.582184,2.672536-2.509493,6.932168.162375,9.515043s6.93152,2.511283,9.515084-.159918s2.513075-6.93087-.157459-9.515125c-1.283319-1.241858-3.007597-1.922746-4.793155-1.892737s-3.485982.768456-4.726845,2.052737Z" fill="#f5f5f5"/><path d="M74,41.46c1.906948-1.149685,3.958242-2.040821,6.1-2.65l1.25-6l10.19-.18l1.47,6c2.157358.507996,4.23617,1.305211,6.18,2.37l5.15-3.38l7.33,7.08-3.19,5.3c1.143728,1.906473,2.034539,3.953657,2.65,6.09l6,1.26.18,10.19-6,1.47c-.526133,2.160623-1.343621,4.239668-2.43,6.18l3.38,5.15-7.08,7.34L100,84.47c-1.904849,1.15375-3.956703,2.04513-6.1,2.65l-1.25,6-10.19.17-1.47-6c-2.158351-.533284-4.236461-1.350405-6.18-2.43L69.6,88.29l-7.33-7.08L65.46,76c-1.146525-1.90731-2.034307-3.958625-2.64-6.1l-6-1.25L56.6,58.4l6-1.46c.521255-2.160854,1.32837-4.242538,2.4-6.19L61.65,45.6l7.08-7.33L74,41.46ZM79.43,55c-4.1912,4.343008-4.068885,11.261134.273219,15.453271s11.260255,4.071315,15.453329-.269883s4.073746-11.259377-.266548-15.453388c-2.08422-2.017673-4.885601-3.123144-7.786017-3.072489s-5.661487,1.253269-7.673983,3.342489Z" fill="#f5f5f5"/><path d="M238.38,216c1.378403-.830178,2.861516-1.472524,4.41-1.91l.91-4.37l7.37-.13l1.06,4.33c1.561946.384306,3.065332.976243,4.47,1.76l3.73-2.44l5.3,5.12-2.3,3.81c.831896,1.377517,1.474345,2.860868,1.91,4.41l4.36.91.13,7.37-4.33,1.06c-.382626,1.560981-.971117,3.064154-1.75,4.47l2.44,3.73L261,249.4l-3.81-2.31c-1.37804.833336-2.861131,1.479036-4.41,1.92l-.91,4.36-7.37.13-1.06-4.33c-1.563325-.379962-3.067285-.972125-4.47-1.76l-3.73,2.45-5.31-5.13l2.31-3.8c-.830178-1.378403-1.472524-2.861516-1.91-4.41l-4.36-.91-.13-7.37l4.32-1.06c.390475-1.563156.982078-3.069055,1.76-4.48l-2.47-3.7l5.12-5.31l3.81,2.31Zm3.93,9.82c-3.03404,3.141765-2.947489,8.148019.193338,11.18303s8.147108,2.950006,11.183089-.189883s2.952524-8.146196-.186427-11.183147c-3.13842-3.039448-8.145358-2.963382-11.19.17Z" fill="#f5f5f5"/><path d="M259.15,347.92c1.379286-.830925,2.862048-1.476481,4.41-1.92l.9-4.36l7.38-.13l1.06,4.33c1.56276.381745,3.066482.973815,4.47,1.76l3.73-2.44l5.3,5.12-2.31,3.81c.830849,1.375779,1.476427,2.855228,1.92,4.4l4.36.91.13,7.37-4.33,1.07c-.386128,1.561366-.977972,3.064515-1.76,4.47l2.44,3.72-5.12,5.31-3.81-2.34c-1.377517.831896-2.860868,1.474345-4.41,1.91l-.9,4.37-7.38.13-1.06-4.33c-1.561366-.386128-3.064515-.977972-4.47-1.76l-3.7,2.47-5.31-5.12l2.31-3.81c-.830925-1.379286-1.476481-2.862048-1.92-4.41l-4.36-.91-.13-7.37l4.33-1.06c.386128-1.561366.977972-3.064515,1.76-4.47l-2.44-3.73l5.12-5.3l3.81,2.31Zm3.93,9.82c-2.222789,2.301853-2.839767,5.716182-1.563148,8.650387s4.195329,4.81022,7.394711,4.752986s6.049125-2.036441,7.21998-5.01443.432153-6.368064-1.871543-8.588943c-1.508236-1.457702-3.534267-2.255757-5.631471-2.21824s-4.093395.907526-5.548529,2.41824Z" fill="#f5f5f5"/><path d="M82.16,265.36c.936546-.564693,1.94589-.998711,3-1.29l.61-2.95l5-.08.71,2.91c1.04698.266108,2.055289.666071,3,1.19L97,263.49l3.58,3.46L99,269.52c.564693.936546.998711,1.94589,1.29,3l2.94.61.09,5-2.92.72c-.260925,1.048652-.661151,2.057625-1.19,3l1.65,2.52-3.45,3.57-2.57-1.56c-.938291.563744-1.947043,1.00087-3,1.3l-.62,2.94-5,.09-.71-2.92c-1.04698-.266108-2.055289-.666071-3-1.19L80,288.2l-3.58-3.46L78,282.18c-.565819-.935968-.999905-1.945471-1.29-3l-2.94-.61-.09-5l2.92-.72c.261873-1.046844.65852-2.055268,1.18-3l-1.64-2.51l3.45-3.58l2.57,1.56ZM84.81,272c-2.043928,2.117535-1.984762,5.490921.132164,7.535478s5.49033,1.986396,7.535517-.129922s1.988029-5.489739-.127681-7.535556c-1.016806-.983215-2.382723-1.521954-3.796941-1.497571s-2.760751.609888-3.743059,1.627571Z" fill="#f5f5f5"/><path d="M89.54,303.66c1.706424-1.024554,3.542883-1.814971,5.46-2.35l1.12-5.37l9.06-.16l1.3,5.32c1.922217.473833,3.772087,1.20369,5.5,2.17l4.58-3l6.52,6.29-2.84,4.68c1.023441,1.6928,1.813899,3.515899,2.35,5.42l5.37,1.12.16,9.06-5.32,1.3c-.473833,1.922217-1.20369,3.772087-2.17,5.5l3,4.58-6.29,6.52-4.68-2.84c-1.694474,1.022655-3.517008,1.816231-5.42,2.36l-1.12,5.36-9.06.16-1.3-5.32c-1.922217-.473833-3.772087-1.20369-5.5-2.17l-4.58,3L79.12,339L82,334.32c-1.024449-1.693547-1.818131-3.516326-2.36-5.42l-5.36-1.12-.16-9.06l5.32-1.3c.473833-1.922217,1.20369-3.772087,2.17-5.5l-3-4.58l6.3-6.52l4.68,2.84Zm4.83,12.07c-3.726644,3.862388-3.617493,10.014256.243821,13.742013s10.013213,3.620378,13.742082-.239862s3.623263-10.01217-.235903-13.742151c-3.864501-3.72746-10.017936-3.620055-13.75.24Z" fill="#f5f5f5"/><rect width="137.54" height="231.75" rx="0" ry="0" transform="translate(341.15 46.08)" fill="#e0e0e0"/><rect width="129.66" height="223.58" rx="0" ry="0" transform="translate(344.86 50.44)" fill="#f5f5f5"/><rect width="51.7" height="80.22" rx="0" ry="0" transform="translate(409.69 62.38)" fill="#fff"/><path d="M438.29,69.47c0,1.06591-.86409,1.93-1.93,1.93s-1.93-.86409-1.93-1.93.86409-1.93,1.93-1.93c.511868,0,1.002771.203339,1.364716.565284s.565284.852848.565284,1.364716Z" fill="#e0e0e0"/><rect width="51.7" height="80.22" rx="0" ry="0" transform="translate(357.58 164.93)" fill="#fff"/><path d="M386.18,172c0,1.06591-.86409,1.93-1.93,1.93s-1.93-.86409-1.93-1.93.86409-1.93,1.93-1.93c.511868,0,1.002771.203339,1.364716.565284s.565284.852848.565284,1.364716Z" fill="#e0e0e0"/><rect width="44.15" height="62.65" rx="0" ry="0" transform="translate(356.88 62.38)" fill="#fff"/><path d="M380.56,68.07c0,.883656-.716344,1.6-1.6,1.6s-1.6-.716344-1.6-1.6.716344-1.6,1.6-1.6c.424346,0,.831313.168571,1.131371.468629s.468629.707025.468629,1.131371Z" fill="#e0e0e0"/><rect width="47.52" height="26.33" rx="0" ry="0" transform="matrix(.99369-.112163 0.112163 0.99369 415.870379 171.342704)" fill="#fff"/><circle r="1.64" transform="translate(440.03 173.66)" fill="#e0e0e0"/><path d="M402.38,183.23c0,.22-8.11.39-18.13.39s-18.13-.17-18.13-.39s8.12-.38,18.13-.38s18.13.15,18.13.38Z" fill="#e0e0e0"/><path d="M402.38,189c0,.21-8.11.39-18.13.39s-18.13-.18-18.13-.39s8.12-.38,18.13-.38s18.13.14,18.13.38Z" fill="#e0e0e0"/><path d="M402.38,194.71c0,.21-8.11.39-18.13.39s-18.13-.18-18.13-.39s8.12-.38,18.13-.38s18.13.17,18.13.38Z" fill="#e0e0e0"/><path d="M402.38,200.45c0,.21-8.11.39-18.13.39s-18.13-.18-18.13-.39s8.12-.38,18.13-.38s18.13.17,18.13.38Z" fill="#e0e0e0"/><path d="M402.38,206.19c0,.21-8.11.39-18.13.39s-18.13-.18-18.13-.39s8.12-.38,18.13-.38s18.13.19,18.13.38Z" fill="#e0e0e0"/><path d="M402.38,211.93c0,.21-8.11.39-18.13.39s-18.13-.18-18.13-.39s8.12-.38,18.13-.38s18.13.17,18.13.38Z" fill="#e0e0e0"/><path d="M402.38,217.67c0,.21-8.11.39-18.13.39s-18.13-.18-18.13-.39s8.12-.38,18.13-.38s18.13.17,18.13.38Z" fill="#e0e0e0"/><path d="M458.66,177.08c0,.21-8,1.52-17.9,2.92s-18,2.36-18,2.15s8-1.51,17.9-2.91s17.97-2.37,18-2.16Z" fill="#e0e0e0"/><path d="M459.38,180.67c0,.21-8,1.52-17.9,2.92s-18,2.36-18,2.15s8-1.51,17.9-2.91s17.97-2.37,18-2.16Z" fill="#e0e0e0"/><path d="M460,184c0,.21-8,1.52-17.9,2.91s-18,2.37-18,2.16s8-1.52,17.9-2.92s18-2.37,18-2.15Z" fill="#e0e0e0"/><path d="M456.84,79.16c0,.22-9.17.39-20.48.39s-20.49-.17-20.49-.39s9.17-.38,20.49-.38s20.48.22,20.48.38Z" fill="#e0e0e0"/><path d="M456.84,82.58c0,.21-9.17.38-20.48.38s-20.49-.17-20.49-.38s9.17-.39,20.49-.39s20.48.17,20.48.39Z" fill="#e0e0e0"/><path d="M456.84,86c0,.21-9.17.39-20.48.39s-20.49-.18-20.49-.39s9.17-.39,20.49-.39s20.48.17,20.48.39Z" fill="#e0e0e0"/><path d="M456.84,89.4c0,.22-9.17.39-20.48.39s-20.49-.17-20.49-.39s9.13-.4,20.49-.4s20.48.19,20.48.4Z" fill="#e0e0e0"/><path d="M456.84,92.82c0,.21-9.17.38-20.48.38s-20.49-.17-20.49-.38s9.17-.39,20.49-.39s20.48.17,20.48.39Z" fill="#e0e0e0"/><path d="M456.84,96.23c0,.21-9.17.38-20.48.38s-20.49-.17-20.49-.38s9.17-.39,20.49-.39s20.48.16,20.48.39Z" fill="#e0e0e0"/><path d="M456.84,99.64c0,.21-9.17.39-20.48.39s-20.49-.18-20.49-.39s9.17-.38,20.49-.38s20.48.17,20.48.38Z" fill="#e0e0e0"/><path d="M456.84,109.77c0,.21-9.17.38-20.48.38s-20.49-.17-20.49-.38s9.17-.39,20.49-.39s20.48.18,20.48.39Z" fill="#e0e0e0"/><path d="M457.13,113.37c0,.22-9.17.39-20.48.39s-20.49-.17-20.49-.39s9.17-.38,20.49-.38s20.48.17,20.48.38Z" fill="#e0e0e0"/><path d="M457.42,117c0,.21-9.18.38-20.49.38s-20.48-.17-20.48-.38s9.17-.39,20.48-.39s20.49.16,20.49.39Z" fill="#e0e0e0"/><path d="M457.7,120.58c0,.22-9.17.39-20.48.39s-20.48-.17-20.48-.39s9.17-.38,20.48-.38s20.48.17,20.48.38Z" fill="#e0e0e0"/><path d="M458,124.19c0,.21-9.17.38-20.48.38s-20.52-.17-20.52-.38s9.16-.39,20.48-.39s20.52.2,20.52.39Z" fill="#e0e0e0"/><path d="M458.28,127.79c0,.22-9.17.39-20.48.39s-20.49-.17-20.49-.39s9.17-.38,20.49-.38s20.48.17,20.48.38Z" fill="#e0e0e0"/><path d="M170.93,91.76h-29.63c-2.045078.000007-3.704488-1.65493-3.71-3.7v-41.06c.005512-2.04507,1.664922-3.700007,3.71-3.7h18.79l14.55,15v29.76c-.005512,2.04507-1.664922,3.700007-3.71,3.7Z" fill="#f5f5f5"/><path d="M137.59,77.07h37.05v10.16c0,1.201431-.477266,2.353654-1.326806,3.203194s-2.001763,1.326806-3.203194,1.326806h-28c-1.201431,0-2.353654-.477266-3.203194-1.326806s-1.326806-2.001763-1.326806-3.203194v-10.16Z" fill="#e0e0e0"/><path d="M150.72,86.55l.93-1.12c.29016.473361.795452.772794,1.35.8.67,0,1-.41,1-1.21v-3.45h-2.54v-1.34h4.21v4.7c.109346.725343-.127768,1.459987-.640531,1.984537s-1.241829.778298-1.969469.685463c-.899895.028108-1.76275-.35907-2.34-1.05Z" fill="#fafafa"/><path d="M156.69,87l.54-1.16c.587306.348928,1.256877.535303,1.94.54.75,0,1-.2,1-.51c0-.91-3.37,0-3.37-2.2c0-1.06.95-1.81,2.58-1.81.742678-.014194,1.477494.154058,2.14.49L161,83.46c-.491388-.275585-1.046653-.416988-1.61-.41-.73,0-1,.22-1,.51c0,1,3.37,0,3.37,2.23c0,1-1,1.77-2.63,1.77-.84837.030547-1.689852-.16258-2.44-.56Z" fill="#fafafa"/><path d="M145.44,69.35L146.6,68c.625552,1.016128,1.726888,1.642231,2.92,1.66c1.59,0,2.41-1,2.41-2.84v-7.88h-5.07v-1.75h7v9.52c0,3.12-1.52,4.67-4.39,4.67-1.593908.020629-3.097831-.73693-4.03-2.03Z" fill="#fafafa"/><path d="M156.38,70.09l.8-1.52c1.107136.719556,2.399581,1.101731,3.72,1.1c1.79,0,2.53-.54,2.53-1.44c0-2.38-6.71-.32-6.71-4.55c0-1.9,1.7-3.18,4.43-3.18c1.352094-.010906,2.68328.33396,3.86,1l-.82,1.5c-.916276-.572377-1.979915-.864356-3.06-.84-1.69,0-2.51.62-2.51,1.46c0,2.51,6.73.46,6.73,4.59c0,1.92-1.76,3.15-4.59,3.15-1.555162.031808-3.083069-.411215-4.38-1.27Z" fill="#fafafa"/><path d="M160.09,43.33v11.54c0,1.905382,1.544618,3.45,3.45,3.45h11.1Z" fill="#ebebeb"/><path d="M160.24,55.88c.012575,1.787004,1.256222,3.329127,3,3.72.11,0,.24.06.36.09c1.45.26,11,2,11,1.73v-3.1h-11.1c0,0-2.73-.09-3.26-2.44Z" fill="#e0e0e0"/></g><g><polygon points="15.88,445.46 68.66,409.82 324.41,408.6 336.11,446 15.88,445.46" fill="#455a64"/><polygon points="335.45,460.06 15.35,459.83 15.35,444.76 335.59,445.76 335.45,460.06" fill="#455a64"/><path d="M327.6,445.68c0,.14-69.13.23-154.37.19s-154.38-.19-154.38-.34s69.11-.23,154.38-.19s154.37.19,154.37.34Z" fill="#263238"/></g><g><path d="M248,115.07h-50.28c-3.473871,0-6.29-2.816129-6.29-6.29v-69.56c-.000002-1.667294.663011-3.266154,1.842904-4.44417s2.779804-1.838485,4.447096-1.83583h31.87l24.67,25.42v50.42c.000039,3.462189-2.79785,6.273487-6.26,6.29Z" fill="#ffc200"/><g opacity="0.2"><path d="M192.67,90.15h60.33c.328868,0,.644267.130642.876812.363188s.363188.547944.363188.876812v17.2c0,3.578805-2.901195,6.48-6.48,6.48h-49.85c-3.578805,0-6.48-2.901195-6.48-6.48v-17.2c0-.684833.555167-1.24,1.24-1.24Z"/></g><g opacity="0.2"><path d="M229.59,32.94v19.57c-.002655,1.550596.611456,3.038593,1.706957,4.13597s2.582445,1.714032,4.133043,1.71403h18.83Z" fill="#fff"/></g><g opacity="0.2"><path d="M229.84,54.23c0,0-.24,4.77,5.16,6.31.204141.057219.411079.103947.62.14c2.46.44,18.64,3.31,18.64,2.94v-5.26h-18.83c0,0-4.7-.16-5.59-4.13Z"/></g><path d="M209.41,101c.125568-2.156122,1.528343-4.028153,3.562442-4.754149s4.305177-.165213,5.767558,1.424149L217.29,99c-.607036-.73035-1.510356-1.148962-2.46-1.14-1.158639-.065569-2.258457.515298-2.857537,1.509202s-.59908,2.237691,0,3.231596s1.698898,1.574771,2.857537,1.509202c.95425.009896,1.860554-.417466,2.46-1.16l1.45,1.34c-1.454573,1.596366-3.723939,2.166019-5.760002,1.445868s-3.442595-2.589961-3.569998-4.745868Z" fill="#fafafa"/><path d="M219.4,104.93l.77-1.7c.951567.650646,2.077256.999156,3.23,1c1.34,0,1.88-.44,1.88-1c0-1.83-5.68-.57-5.68-4.2c0-1.67,1.34-3,4.12-3c1.187877-.021848,2.359448.278821,3.39.87l-.7,1.72c-.820978-.488022-1.755068-.753427-2.71-.77-1.34,0-1.85.5-1.85,1.11c0,1.8,5.68.56,5.68,4.15c0,1.63-1.36,3-4.15,3-1.415462.018143-2.803164-.393286-3.98-1.18Z" fill="#fafafa"/><path d="M228.31,104.93l.76-1.7c.952919.647843,2.077724.99608,3.23,1c1.34,0,1.88-.44,1.88-1c0-1.83-5.68-.57-5.68-4.2c0-1.67,1.34-3,4.12-3c1.187877-.021848,2.359448.278821,3.39.87l-.7,1.72c-.820422-.489312-1.754862-.754818-2.71-.77-1.34,0-1.85.5-1.85,1.11c0,1.8,5.68.56,5.68,4.15c0,1.63-1.35,3-4.15,3-1.412767.021188-2.798165-.390593-3.97-1.18Z" fill="#fafafa"/><path d="M212.6,69.38c1,.32,1.51,1,1.51,2.52v3.59c-.058541.452086.094522.905925.414905,1.230215s.772333.482842,1.225095.429785h.4v2.74h-1.3c-2.81,0-4.24-1.44-4.24-4v-4.08c.044827-.281751-.043596-.568356-.23937-.775877s-.476748-.312475-.76063-.284123h-.74v-2.75h.74c.282892.031828.564377-.070563.760706-.276708s.284875-.492288.239294-.773292v-4.06c0-2.58,1.43-4,4.24-4h1.3v2.73h-.4c-.454738-.053712-.908729.106088-1.229565.432792s-.47238.783518-.410435,1.237208v3.59c0,1.54-.47,2.19-1.51,2.5Z" fill="#fafafa"/><path d="M236.81,68v2.74h-.75c-.6,0-1,.34-1,1.06v4.06c0,2.58-1.44,4-4.25,4h-1.3v-2.71h.41c.452762.053057.904713-.105496,1.225095-.429785s.473446-.778129.414905-1.230215v-3.59c0-1.55.47-2.2,1.5-2.52-1-.31-1.5-1-1.5-2.51v-3.59c.061945-.45369-.089599-.910503-.410435-1.237208s-.774827-.486504-1.229565-.432792h-.41v-2.73h1.3c2.81,0,4.25,1.43,4.25,4v4.12c0,.72.38,1.05,1,1.05Z" fill="#fafafa"/><path d="M318.34,165.57h-51c-1.693815.000002-3.318111-.673547-4.51488-1.872193s-1.867775-2.823994-1.86512-4.517807v-70.61c0-3.523577,2.856423-6.38,6.38-6.38h32.35l25,25.81v51.18c.00555,3.515795-2.83424,6.373472-6.35,6.39Z" fill="#ffc200"/><g opacity="0.2"><path d="M260.95,140.27h63.78v18.4c0,3.810765-3.089235,6.9-6.9,6.9h-50c-3.810765,0-6.9-3.089235-6.9-6.9v-18.4Z"/></g><g opacity="0.2"><path d="M299.68,82.19v19.87c0,3.280571,2.659429,5.94,5.94,5.94h19.1Z" fill="#fff"/></g><g opacity="0.2"><path d="M299.94,103.81c0,0-.25,4.82,5.24,6.4.207249.058283.417572.105021.63.14c2.49.45,18.91,3.37,18.91,3v-5.35h-19.1c0,0-4.77-.16-5.68-4.19Z"/></g><path d="M287.14,119.38l-7.66,2.8l7.66,2.78v2.88l-10.95-4.16v-3l10.95-4.16Z" fill="#fafafa"/><path d="M295.37,110.87h3.19L291,132.53h-3.19Z" fill="#fafafa"/><path d="M309.92,120.69v3L299,127.84v-2.84l7.66-2.78-7.66-2.8v-2.85Z" fill="#fafafa"/><path d="M284.53,149.68v8.57h-2v-3.51h-3.89v3.51h-2v-8.57h2v3.38h3.89v-3.38Z" fill="#fafafa"/><path d="M288.34,151.3h-2.74v-1.62h7.47v1.62h-2.75v6.95h-2Z" fill="#fafafa"/><path d="M301.93,158.25v-5.14l-2.52,4.24h-.9L296,153.22v5h-1.86v-8.57h1.64L299,155l3.16-5.33h1.63v8.57Z" fill="#fafafa"/><path d="M305.82,149.68h2v7h4.3v1.61h-6.29Z" fill="#fafafa"/></g><g><rect width="98.74" height="159.15" rx="3.06" ry="3.06" transform="translate(43.03 108.37)" fill="#fff"/><path d="M46.64,108.37h91.66c1.916428,0,3.47,1.553572,3.47,3.47v14.31h-98.77L43,112c-.005386-.966114.376707-1.894073,1.060802-2.576289s1.613102-1.061755,2.579198-1.053711Z" fill="#e0e0e0"/><path d="M138.46,267.52c.435773-.02343.864775-.118013,1.27-.28c1.19552-.523381,1.976694-1.695142,2-3c0-3.41,0-8.42-.05-14.87c0-12.91,0-31.58-.08-54.65s0-50.56-.06-81.07v-1.43c.027426-.456772-.013014-.915087-.12-1.36-.38528-1.334415-1.611112-2.249703-3-2.24h-92c-1.581791-.003519-2.894551,1.221723-3,2.8c0,.51,0,1.08,0,1.62v44.83c0,16.6,0,32.62,0,47.88s0,29.75,0,43.32c0,3.39,0,6.73,0,10v4.86c-.116584,1.561377.931332,2.971378,2.46,3.31.763937.079346,1.532652.102742,2.3.07h15.58l54.66.08l14.86.05h3.86h1.32-1.32-3.86l-14.86.05-54.66.08h-15.76c-.797559.027334-1.596054.000606-2.39-.08-.826746-.175631-1.562013-.644496-2.07-1.32-.511499-.683992-.763152-1.527561-.71-2.38c0-1.6,0-3.22,0-4.86v-10c0-13.57,0-28.07,0-43.32s0-31.28,0-47.88q0-12.47,0-25.33v-19.5c0-.55,0-1.07,0-1.66.046358-.592675.24249-1.163865.57-1.66.662155-1.012084,1.790553-1.621419,3-1.62h92.05c.519963-.008513,1.035448.097315,1.51.31.970728.427258,1.702854,1.261881,2,2.28.110978.48843.154715.989731.13,1.49v1.43c0,30.51,0,58-.06,81.07s-.06,41.74-.08,54.65c0,6.45,0,11.46-.05,14.87-.008753.762738-.276775,1.499798-.76,2.09-.351114.432577-.800157.775358-1.31,1-.321612.120828-.657916.198178-1,.23Z" fill="#263238"/><path d="M57.59,118.65c0,1.612671-1.307329,2.92-2.92,2.92s-2.92-1.307329-2.92-2.92s1.307329-2.92,2.92-2.92c.775247-.002669,1.519512.304116,2.067698.852302s.854971,1.292451.852302,2.067698Z" fill="#fff"/><circle r="2.91" transform="translate(63.64 118.65)" fill="#fff"/><circle r="2.91" transform="translate(72.6 118.65)" fill="#fff"/><path d="M86,150.26h-18.19c-1.104569,0-2-.895431-2-2v0c0-1.104569.895431-2,2-2h18.19c1.104569,0,2,.895431,2,2v0c0,1.104569-.895431,2-2,2Z" fill="#263238"/><path d="M86,160.59h-18.19c-1.104569,0-2-.895431-2-2v0c0-1.104569.895431-2,2-2h18.19c1.104569,0,2,.895431,2,2v0c0,1.104569-.895431,2-2,2Z" fill="#e0e0e0"/><path d="M86.52,188.88h-18.19c-1.104569,0-2-.895431-2-2v0c0-1.104569.895431-2,2-2h18.19c1.104569,0,2,.895431,2,2v0c0,1.104569-.895431,2-2,2Z" fill="#e0e0e0"/><path d="M86,171.26h-18.19c-1.104569,0-2-.895431-2-2v0c0-1.104569.895431-2,2-2h18.19c1.104569,0,2,.895431,2,2v0c0,1.104569-.895431,2-2,2Z" fill="#ffc200"/><path d="M86,230.78h-18.19c-1.104569,0-2-.895431-2-2v0c0-1.104569.895431-2,2-2h18.19c1.104569,0,2,.895431,2,2v0c0,1.104569-.895431,2-2,2Z" fill="#ffc200"/><path d="M115.13,150.26h-18.19c-1.104569,0-2-.895431-2-2v0c0-1.104569.895431-2,2-2h18.19c1.104569,0,2,.895431,2,2v0c0,1.104569-.895431,2-2,2Z" fill="#455a64"/><path d="M134.82,160.59h-38c-.50512-.02319-.979883-.24782-1.318147-.623668s-.511815-.871569-.481853-1.376332v0c-.029962-.504763.14359-1.000484.481853-1.376332s.813027-.600478,1.318147-.623668h38.05c.50512.02319.979883.24782,1.318147.623668s.511815.871569.481853,1.376332v0c.030014.513154-.150279,1.016397-.499327,1.393747s-.836739.596251-1.350673.606253Z" fill="#263238"/><path d="M133.79,171.26h-38.3c-.513818-.012876-1.000762-.232294-1.350789-.608666s-.533591-.877933-.509211-1.391334v0c-.02438-.513401.159185-1.014961.509211-1.391334s.836971-.59579,1.350789-.608666h38.3c.513818.012876,1.000762.232294,1.350789.608666s.533591.877933.509211,1.391334v0c.02438.513401-.159185,1.014961-.509211,1.391334s-.836971.59579-1.350789.608666Z" fill="#e0e0e0"/><path d="M106.12,179.89h-38.3c-.513818-.012876-1.000762-.232294-1.350789-.608666s-.533591-.877933-.509211-1.391334v0c-.02438-.513401.159185-1.014961.509211-1.391334s.836971-.59579,1.350789-.608666h38.3c.513818.012876,1.000762.232294,1.350789.608666s.533591.877933.509211,1.391334v0c.02438.513401-.159185,1.014961-.509211,1.391334s-.836971.59579-1.350789.608666Z" fill="#e0e0e0"/><path d="M58.9,148.29c0,1.104569-.895431,2-2,2s-2-.895431-2-2s.895431-2,2-2s2,.895431,2,2Z" fill="#455a64"/><path d="M58.9,138.41c0,1.104569-.895431,2-2,2s-2-.895431-2-2s.895431-2,2-2s2,.895431,2,2Z" fill="#455a64"/><path d="M58.9,158.59c0,1.104569-.895431,2-2,2s-2-.895431-2-2s.895431-2,2-2s2,.895431,2,2Z" fill="#455a64"/><path d="M58.9,169.29c0,1.104569-.895431,2-2,2s-2-.895431-2-2s.895431-2,2-2s2,.895431,2,2Z" fill="#455a64"/><path d="M86.52,217.76h-18.19c-1.104569,0-2-.895431-2-2v0c0-1.104569.895431-2,2-2h18.19c1.104569,0,2,.895431,2,2v0c0,1.104569-.895431,2-2,2Z" fill="#e0e0e0"/><path d="M86,200.14h-18.19c-1.104569,0-2-.895431-2-2v0c0-1.104569.895431-2,2-2h18.19c1.104569,0,2,.895431,2,2v0c0,1.104569-.895431,2-2,2Z" fill="#ffc200"/><path d="M133.79,200.14h-38.3c-.513818-.012876-1.000762-.232294-1.350789-.608666s-.533591-.877933-.509211-1.391334v0c-.02438-.513401.159185-1.014961.509211-1.391334s.836971-.59579,1.350789-.608666h38.3c.513818.012876,1.000762.232294,1.350789.608666s.533591.877933.509211,1.391334v0c.02438.513401-.159185,1.014961-.509211,1.391334s-.836971.59579-1.350789.608666Z" fill="#e0e0e0"/><path d="M106.12,208.77h-38.3c-.513818-.012876-1.000762-.232294-1.350789-.608666s-.533591-.877933-.509211-1.391334v0c-.02438-.513401.159185-1.014961.509211-1.391334s.836971-.59579,1.350789-.608666h38.3c.513818.012876,1.000762.232294,1.350789.608666s.533591.877933.509211,1.391334v0c.02438.513401-.159185,1.014961-.509211,1.391334s-.836971.59579-1.350789.608666Z" fill="#e0e0e0"/><path d="M58.9,198.17c0,1.104569-.895431,2-2,2s-2-.895431-2-2s.895431-2,2-2s2,.895431,2,2Z" fill="#455a64"/><rect width="13.3" height="3.81" rx="0.96" ry="0.96" transform="translate(65.95 136.99)" fill="#455a64"/><path d="M86,241.29h-18.19c-1.104569,0-2-.895431-2-2v0c0-1.104569.895431-2,2-2h18.19c1.104569,0,2,.895431,2,2v0c0,1.104569-.895431,2-2,2Z" fill="#263238"/><path d="M115.13,241.29h-18.19c-1.104569,0-2-.895431-2-2v0c0-1.104569.895431-2,2-2h18.19c1.104569,0,2,.895431,2,2v0c0,1.104569-.895431,2-2,2Z" fill="#455a64"/><path d="M58.9,239.32c0,1.104569-.895431,2-2,2s-2-.895431-2-2s.895431-2,2-2s2,.895431,2,2Z" fill="#455a64"/><path d="M58.9,248.82c0,1.104569-.895431,2-2,2s-2-.895431-2-2s.895431-2,2-2s2,.895431,2,2Z" fill="#455a64"/><rect width="13.3" height="3.81" rx="0.96" ry="0.96" transform="translate(65.95 247.4)" fill="#455a64"/><rect width="180.35" height="114.72" rx="0" ry="0" transform="translate(148.36 242.95)" fill="#fff"/><rect width="32.48" height="114.72" rx="0" ry="0" transform="translate(148.36 242.95)" fill="#ebebeb"/><path d="M162.64,255.33c.168582-.101104.350291-.178499.54-.23l.11-.54h.9l.14.53c.188709.049814.370206.123757.54.22l.46-.3.65.62-.28.47c.101104.168582.178499.350291.23.54l.54.11v.91l-.53.13c-.042486.192689-.113252.37803-.21.55l.3.45-.63.65-.47-.28c-.168214.104249-.349898.184998-.54.24l-.11.53h-.91l-.13-.53c-.188709-.049814-.370206-.123757-.54-.22l-.46.3-.65-.63.28-.47c-.101104-.168582-.178499-.350291-.23-.54l-.54-.11v-.9l.53-.13c.04457-.192058.115226-.37711.21-.55l-.3-.46.63-.65.47.28Zm.48,1.21c-.361943.38495-.361943.98505,0,1.37.386298.368254.993702.368254,1.38,0c.234534-.398576.165173-.905978-.167726-1.226988s-.842487-.371879-1.232274-.123012Z" fill="#e0e0e0"/><path d="M170.14,280.68h-14.14c-.386303.000009-.75664-.15413-1.028857-.428225s-.423807-.645481-.421143-1.031775v0c0-.800813.649187-1.45,1.45-1.45h14.16c.386294-.002664.757681.148926,1.031775.421143s.428234.642554.428225,1.028857v0c.000037.390706-.156527.765126-.434671,1.039512s-.654659.42584-1.045329.420488Z" fill="#e0e0e0"/><path d="M170.14,273.27h-14.14c-.802428-.005496-1.450019-.657553-1.45-1.46v0c0-.800813.649187-1.45,1.45-1.45h14.16c.386294-.002664.757681.148926,1.031775.421143s.428234.642554.428225,1.028857v0c.000037.390706-.156527.765126-.434671,1.039512s-.654659.42584-1.045329.420488Z" fill="#e0e0e0"/><path d="M170.14,266.48h-14.14c-.800813,0-1.45-.649187-1.45-1.45v0c-.000019-.802447.647572-1.454504,1.45-1.46h14.16c.786975.010617,1.423899.643118,1.44,1.43v0c.008111.391476-.142448.769591-.417433,1.048343s-.651017.434441-1.042567.431657Z" fill="#e0e0e0"/><path d="M208.19,259.9h-13.42c-.800813,0-1.45-.649187-1.45-1.45v0c-.002664-.386294.148926-.757681.421143-1.031775s.642554-.428234,1.028857-.428225h13.42c.386303-.000009.75664.15413,1.028857.428225s.423807.645481.421143,1.031775v0c0,.800813-.649187,1.45-1.45,1.45Z" fill="#263238"/><path d="M208.19,267.52h-13.42c-.386303.000009-.75664-.15413-1.028857-.428225s-.423807-.645481-.421143-1.031775v0c0-.800813.649187-1.45,1.45-1.45h13.42c.800813,0,1.45.649187,1.45,1.45v0c.002664.386294-.148926.757681-.421143,1.031775s-.642554.428234-1.028857.428225Z" fill="#e0e0e0"/><path d="M208.19,275.39h-13.42c-.800813,0-1.45-.649187-1.45-1.45v0c-.002664-.386294.148926-.757681.421143-1.031775s.642554-.428234,1.028857-.428225h13.42c.386303-.000009.75664.15413,1.028857.428225s.423807.645481.421143,1.031775v0c0,.800813-.649187,1.45-1.45,1.45Z" fill="#ffc200"/><path d="M202.47,290.61h-7.7c-.386303.000009-.75664-.15413-1.028857-.428225s-.423807-.645481-.421143-1.031775v0c0-.800813.649187-1.45,1.45-1.45h7.7c.800813,0,1.45.649187,1.45,1.45v0c.002664.386294-.148926.757681-.421143,1.031775s-.642554.428234-1.028857.428225Z" fill="#263238"/><path d="M202.47,298.5h-7.7c-.386303.000009-.75664-.15413-1.028857-.428225s-.423807-.645481-.421143-1.031775v0c0-.800813.649187-1.45,1.45-1.45h7.7c.800813,0,1.45.649187,1.45,1.45v0c.002664.386294-.148926.757681-.421143,1.031775s-.642554.428234-1.028857.428225Z" fill="#263238"/><path d="M225.32,298.5h-14.1c-.806336,0-1.46-.653664-1.46-1.46v0c.005496-.802428.657553-1.450019,1.46-1.45h14.1c.386294-.002664.757681.148926,1.031775.421143s.428234.642554.428225,1.028857v0c0,.806336-.653664,1.46-1.46,1.46Z" fill="#e0e0e0"/><path d="M217.35,305.51h-14.11c-.800813,0-1.45-.649187-1.45-1.45v0c-.000019-.802447.647572-1.454504,1.45-1.46h14.11c.802428.005496,1.450019.657553,1.45,1.46v0c0,.384564-.152767.753377-.424695,1.025305s-.640741.424695-1.025305.424695Z" fill="#ffc200"/><rect width="11.67" height="2.91" rx="0.99" ry="0.99" transform="translate(209.79 310.61)" fill="#ffc200"/><path d="M220,329.2h-8.76c-.806336,0-1.46-.653664-1.46-1.46v0c-.000009-.386303.15413-.75664.428225-1.028857s.645481-.423807,1.031775-.421143h8.76c.800813,0,1.45.649187,1.45,1.45v0c.002664.386294-.148926.757681-.421143,1.031775s-.642554.428234-1.028857.428225Z" fill="#ffc200"/><path d="M220,345.76h-8.76c-.386294.002664-.757681-.148926-1.031775-.421143s-.428234-.642554-.428225-1.028857v0c0-.806336.653664-1.46,1.46-1.46h8.76c.386303-.000009.75664.15413,1.028857.428225s.423807.645481.421143,1.031775v0c0,.800813-.649187,1.45-1.45,1.45Z" fill="#ffc200"/><path d="M241.55,345.76h-15.36c-.386294.002664-.757681-.148926-1.031775-.421143s-.428234-.642554-.428225-1.028857v0c0-.806336.653664-1.46,1.46-1.46h15.36c.386303-.000009.75664.15413,1.028857.428225s.423807.645481.421143,1.031775v0c0,.800813-.649187,1.45-1.45,1.45Z" fill="#455a64"/><path d="M252.3,345.76h-2.21c-.386294.002664-.757681-.148926-1.031775-.421143s-.428234-.642554-.428225-1.028857v0c0-.806336.653664-1.46,1.46-1.46h2.21c.806336,0,1.46.653664,1.46,1.46v0c-.005496.802428-.657553,1.450019-1.46,1.45Z" fill="#e0e0e0"/><path d="M240.63,329.2h-13c-.806336,0-1.46-.653664-1.46-1.46v0c-.000009-.386303.15413-.75664.428225-1.028857s.645481-.423807,1.031775-.421143h13c.800813,0,1.45.649187,1.45,1.45v0c.002664.386294-.148926.757681-.421143,1.031775s-.642554.428234-1.028857.428225Z" fill="#e0e0e0"/><path d="M269.1,336.47h-41.45c-.806336,0-1.46-.653664-1.46-1.46v0c-.000009-.386303.15413-.75664.428225-1.028857s.645481-.423807,1.031775-.421143h41.45c.800813,0,1.45.649187,1.45,1.45v0c.002664.386294-.148926.757681-.421143,1.031775s-.642554.428234-1.028857.428225Z" fill="#e0e0e0"/><path d="M273.88,329.2h-26.46c-.806336,0-1.46-.653664-1.46-1.46v0c.005496-.802428.657553-1.450019,1.46-1.45h26.46c.386294-.002664.757681.148926,1.031775.421143s.428234.642554.428225,1.028857v0c0,.806336-.653664,1.46-1.46,1.46Z" fill="#455a64"/><rect width="13.87" height="2.91" rx="0.99" ry="0.99" transform="translate(225.27 310.61)" fill="#455a64"/><rect width="5.63" height="2.91" rx="0.99" ry="0.99" transform="translate(243 310.61)" fill="#e0e0e0"/><rect width="16.62" height="2.91" rx="0.99" ry="0.99" transform="translate(252.92 310.61)" fill="#e0e0e0"/><path d="M226.9,305.51h-3.14c-.386294.002664-.757681-.148926-1.031775-.421143s-.428234-.642554-.428225-1.028857v0c0-.806336.653664-1.46,1.46-1.46h3.14c.802428.005496,1.450019.657553,1.45,1.46v0c0,.800813-.649187,1.45-1.45,1.45Z" fill="#263238"/><path d="M253.52,305.51h-20c-.800813,0-1.45-.649187-1.45-1.45v0c-.000019-.802447.647572-1.454504,1.45-1.46h20c.804067.005451,1.454549.655933,1.46,1.46v0c-.005496.802428-.657553,1.450019-1.46,1.45Z" fill="#e0e0e0"/><path d="M229.67,259.9h-13.41c-.800813,0-1.45-.649187-1.45-1.45v0c-.002664-.386294.148926-.757681.421143-1.031775s.642554-.428234,1.028857-.428225h13.41c.806336,0,1.46.653664,1.46,1.46v0c.000009.386303-.15413.75664-.428225,1.028857s-.645481.423807-1.031775.421143Z" fill="#455a64"/><path d="M247,267.52h-30.74c-.386303.000009-.75664-.15413-1.028857-.428225s-.423807-.645481-.421143-1.031775v0c0-.800813.649187-1.45,1.45-1.45h30.74c.386294-.002664.757681.148926,1.031775.421143s.428234.642554.428225,1.028857v0c0,.806336-.653664,1.46-1.46,1.46Z" fill="#263238"/><path d="M280,275.39h-63.74c-.800813,0-1.45-.649187-1.45-1.45v0c-.002664-.386294.148926-.757681.421143-1.031775s.642554-.428234,1.028857-.428225h63.74c.386303-.000009.75664.15413,1.028857.428225s.423807.645481.421143,1.031775v0c0,.800813-.649187,1.45-1.45,1.45Z" fill="#e0e0e0"/><path d="M246.31,280.94h-30.05c-.802428-.005496-1.450019-.657553-1.45-1.46v0c0-.800813.649187-1.45,1.45-1.45h30.05c.386294-.002664.757681.148926,1.031775.421143s.428234.642554.428225,1.028857v0c0,.806336-.653664,1.46-1.46,1.46Z" fill="#e0e0e0"/><path d="M240.17,290.61h-30.06c-.386303.000009-.75664-.15413-1.028857-.428225s-.423807-.645481-.421143-1.031775v0c0-.800813.649187-1.45,1.45-1.45h30.06c.800813,0,1.45.649187,1.45,1.45v0c.002664.386294-.148926.757681-.421143,1.031775s-.642554.428234-1.028857.428225Z" fill="#455a64"/><path d="M257,290.61h-10.08c-.806336,0-1.46-.653664-1.46-1.46v0c-.000009-.386303.15413-.75664.428225-1.028857s.645481-.423807,1.031775-.421143h10.08c.802447-.000019,1.454504.647572,1.46,1.45v0c0,.806336-.653664,1.46-1.46,1.46Z" fill="#ffc200"/><path d="M282.75,290.56h-19c-.386294.002664-.757681-.148926-1.031775-.421143s-.428234-.642554-.428225-1.028857v0c0-.806336.653664-1.46,1.46-1.46h19c.386303-.000009.75664.15413,1.028857.428225s.423807.645481.421143,1.031775v0c0,.800813-.649187,1.45-1.45,1.45Z" fill="#263238"/><path d="M308.64,290.56h-19c-.800813,0-1.45-.649187-1.45-1.45v0c-.002664-.386294.148926-.757681.421143-1.031775s.642554-.428234,1.028857-.428225h19c.806336,0,1.46.653664,1.46,1.46v0c.000009.386303-.15413.75664-.428225,1.028857s-.645481.423807-1.031775.421143Z" fill="#e0e0e0"/><path d="M164,288.53h-8c-.802428-.005496-1.450019-.657553-1.45-1.46v0c0-.800813.649187-1.45,1.45-1.45h8c.800813,0,1.45.649187,1.45,1.45v0c.000019.802447-.647572,1.454504-1.45,1.46Z" fill="#e0e0e0"/><path d="M161.61,312.07h-5.61c-.386303.000009-.75664-.15413-1.028857-.428225s-.423807-.645481-.421143-1.031775v0c0-.800813.649187-1.45,1.45-1.45h5.63c.800813,0,1.45.649187,1.45,1.45v0c.002725.389785-.151599.764252-.428165,1.038937s-.652078.426449-1.041835.421063Z" fill="#e0e0e0"/><path d="M171.6,296.37h-15.6c-.800813,0-1.45-.649187-1.45-1.45v0c-.002664-.386294.148926-.757681.421143-1.031775s.642554-.428234,1.028857-.428225h15.6c.386303-.000009.75664.15413,1.028857.428225s.423807.645481.421143,1.031775v0c0,.800813-.649187,1.45-1.45,1.45Z" fill="#e0e0e0"/><path d="M168.86,304.22h-12.86c-.800813,0-1.45-.649187-1.45-1.45v0c-.002664-.386294.148926-.757681.421143-1.031775s.642554-.428234,1.028857-.428225h12.88c.386303-.000009.75664.15413,1.028857.428225s.423807.645481.421143,1.031775v0c.000037.388054-.155473.759931-.431742,1.032441s-.650241.422911-1.038258.417559Z" fill="#e0e0e0"/><path d="M188.2,258.45c0,.817381-.662619,1.48-1.48,1.48s-1.48-.662619-1.48-1.48.662619-1.48,1.48-1.48c.39252,0,.768964.155928,1.046518.433482s.433482.653998.433482,1.046518Z" fill="#455a64"/><circle r="1.48" transform="translate(186.72 250.68)" fill="#455a64"/><circle r="1.48" transform="translate(186.72 266.04)" fill="#455a64"/><circle r="1.48" transform="translate(186.72 273.94)" fill="#455a64"/><circle r="1.48" transform="translate(186.72 281.83)" fill="#455a64"/><path d="M188.2,289.72c.004051.599498-.35396,1.142221-.906665,1.374451s-1.190913.108088-1.616266-.314391-.553819-1.059831-.325341-1.614098.768761-.915948,1.368272-.915962c.813492-.000019,1.474503.656527,1.48,1.47Z" fill="#455a64"/><circle r="1.48" transform="translate(186.72 297.62)" fill="#455a64"/><circle r="1.48" transform="translate(186.72 305.51)" fill="#455a64"/><path d="M188.2,313.41c0,.817381-.662619,1.48-1.48,1.48s-1.48-.662619-1.48-1.48.662619-1.48,1.48-1.48c.39252,0,.768964.155928,1.046518.433482s.433482.653998.433482,1.046518Z" fill="#455a64"/><path d="M188.2,321.3c0,.817381-.662619,1.48-1.48,1.48s-1.48-.662619-1.48-1.48.662619-1.48,1.48-1.48c.39252,0,.768964.155928,1.046518.433482s.433482.653998.433482,1.046518Z" fill="#455a64"/><circle r="1.48" transform="translate(186.72 329.2)" fill="#455a64"/><path d="M188.2,337.09c0,.817381-.662619,1.48-1.48,1.48s-1.48-.662619-1.48-1.48.662619-1.48,1.48-1.48c.39252,0,.768964.155928,1.046518.433482s.433482.653998.433482,1.046518Z" fill="#455a64"/><circle r="1.48" transform="translate(186.72 344.99)" fill="#455a64"/><path d="M153.77,227.31h171.11c2.115251,0,3.83,1.714749,3.83,3.83v11.86h-180.35v-10.29c-.000002-1.433903.570297-2.808932,1.585157-3.821917s2.390942-1.580738,3.824843-1.578083Z" fill="#e0e0e0"/><circle r="2.15" transform="translate(157.68 235.61)" fill="#fff"/><path d="M166.44,235.61c0,1.187412-.962588,2.15-2.15,2.15s-2.15-.962588-2.15-2.15.962588-2.15,2.15-2.15c.571031-.002675,1.119448.222984,1.523232.626768s.629443.952201.626768,1.523232Z" fill="#fff"/><path d="M173.05,235.61c0,1.187412-.962588,2.15-2.15,2.15s-2.15-.962588-2.15-2.15.962588-2.15,2.15-2.15c.571031-.002675,1.119448.222984,1.523232.626768s.629443.952201.626768,1.523232Z" fill="#fff"/><polygon points="186.72,355.88 201.97,372.37 215.8,355.88 186.72,355.88" fill="#fff"/><path d="M323.82,357.68c.537347-.031872,1.068367-.132698,1.58-.3c1.50766-.531012,2.658754-1.768065,3.08-3.31.144837-.527077.202266-1.074338.17-1.62v-1.84c0-1.29,0-2.7,0-4.22c0-3.05,0-6.57,0-10.53c0-15.85-.05-38.77-.08-67.1q0-10.62,0-22.23q0-5.81,0-11.83c0-1,0-2,0-3-.2193-2.008894-1.70327-3.650133-3.68-4.07-1.016095-.109375-2.038932-.142801-3.06-.1h-53.18-58.77-55c-.66,0-1.37,0-2,0-.63657.061264-1.253194.25545-1.81.57-1.130243.644049-1.939024,1.732095-2.23,3-.135157.913373-.178707,1.837966-.13,2.76v41.58q0,21.75,0,42.44v20.33q0,5,0,9.93c0,1.63,0,3.28,0,4.88.092331,1.563657.969002,2.974608,2.33,3.75.666964.384557,1.420272.594382,2.19.61h34.77l.07.07l14,14.7h-.31L214,357.55l.06-.07h.09l80.17.08l21.89.06h5.7h1.94-1.94-5.7l-21.89.06-80.17.08.15-.07L202,372.5l-.15.18-.16-.17-14-14.68.16.07h-34.7c-.842356-.026319-1.665815-.256202-2.4-.67-1.503077-.856669-2.473115-2.41324-2.58-4.14c0-1.66,0-3.27,0-4.91v-9.93q0-10,0-20.33v-42.43q0-10.87,0-22v-21c-.012029-.490519.034975-.980705.14-1.46.334552-1.398256,1.232039-2.596111,2.48-3.31.615637-.348428,1.296454-.566289,2-.64.73-.05,1.36,0,2,0h113.76h53.18c1.047923-.047592,2.097976-.010806,3.14.11c2.151623.461988,3.764248,2.252002,4,4.44.06,1.06,0,2,0,3q0,6,0,11.83q0,11.6,0,22.23c0,28.33-.07,51.25-.09,67.1c0,4,0,7.48,0,10.53c0,1.52,0,2.93,0,4.22v1.84c.025653.556633-.038501,1.113766-.19,1.65-.246814.900996-.750658,1.710621-1.45,2.33-.492483.451033-1.075429.791937-1.71,1-.384967.129832-.784804.210471-1.19.24Z" fill="#263238"/><path d="M162.53,128.49h136.24c.840736,0,1.647038.333981,2.241528.928472s.928472,1.400792.928472,2.241528v68.53c0,1.00517-.399302,1.969172-1.110065,2.679935s-1.674765,1.110065-2.679935,1.110065h-135.62c-1.750743,0-3.17-1.419257-3.17-3.17v-69.15c0-1.750743,1.419257-3.17,3.17-3.17Z" fill="#fff"/><path d="M162.83,128.49h135.64c.920301,0,1.802909.365588,2.453661,1.016339s1.016339,1.53336,1.016339,2.453661v12.74h-142.58v-12.7c-.010689-.927212.350175-1.820131,1.002088-2.479559s1.540638-1.030503,2.467912-1.030441Z" fill="#e0e0e0"/><path d="M297.93,204c.367897-.033576.73244-.09712,1.09-.19c1.045165-.305044,1.917511-1.028982,2.41-2c.355623-.711536.507884-1.507446.44-2.3c0-.89,0-1.85,0-2.9c0-2.09,0-4.51,0-7.23c0-10.88,0-26.61-.08-46.05q0-3.65,0-7.47c0-1.27,0-2.55,0-3.85.11699-1.265492-.576102-2.467387-1.73-3-.591999-.241438-1.233247-.337453-1.87-.28h-14.6-36.5-83.64c-.442008-.021985-.885067.008224-1.32.09-1.286484.303886-2.262112,1.354561-2.47,2.66-.035726.445952-.035726.894048,0,1.34v15q0,10.83,0,21.34v20.6q0,5,0,10c-.057098,1.588403.88041,3.044533,2.35,3.65.742019.253331,1.52956.345381,2.31.27h2.42h68.31l46.05.08h12.52h3.26h1.11-1.11-3.26l-12.52.05-46.05.08-68.31.06h-2.42c-.842472.068312-1.689995-.037203-2.49-.31-1.650721-.683279-2.708778-2.314119-2.66-4.1v-10c0-6.73,0-13.61,0-20.6v-36.1c-.022622-.473902-.005898-.948863.05-1.42.229087-1.517193,1.36391-2.73931,2.86-3.08.473095-.099685.957253-.13667,1.44-.11h83.64h36.5h14.55c.682849-.059736,1.369878.050189,2,.32c1.311136.599298,2.109519,1.952557,2,3.39c0,1.3,0,2.58,0,3.85q0,3.83,0,7.47c0,19.44-.06,35.17-.08,46.05c0,2.72,0,5.14,0,7.23c0,1.05,0,2,0,2.9.019513.424982-.007312.850826-.08,1.27-.082813.375332-.213904.738353-.39,1.08-.526947.978678-1.429521,1.700737-2.5,2-.39285.147821-.810358.219103-1.23.21Z" fill="#263238"/><circle r="2.66" transform="translate(169.97 137.86)" fill="#fff"/><path d="M180.79,137.86c-.000008,1.076778-.649183,2.047337-1.644385,2.458462s-2.140096.181707-2.900058-.581122-.985065-1.90858-.570195-2.902226s1.387868-1.639162,2.464638-1.635114c.70456-.000005,1.380118.280563,1.877377.779699s.775282,1.175746.772623,1.880301Z" fill="#fff"/><circle r="2.66" transform="translate(186.31 137.86)" fill="#fff"/><path d="M200.44,167.54h-16.57c-.476468.002662-.934335-.184751-1.272191-.52073s-.527816-.792795-.527809-1.26927v0c-.002679-.478206.186103-.937601.524251-1.275749s.797543-.52693,1.275749-.524251h16.57c.47739,0,.935227.189642,1.272792.527208s.527208.795402.527208,1.272792v0c-.005501.990205-.80978,1.790015-1.8,1.79Z" fill="#263238"/><path d="M200.44,177h-16.57c-.47739,0-.935227-.189642-1.272792-.527208s-.527208-.795402-.527208-1.272792v0c0-.47739.189642-.935227.527208-1.272792s.795402-.527208,1.272792-.527208h16.57c.99184.005465,1.794535.80816,1.8,1.8v0c-.005465.99184-.80816,1.794535-1.8,1.8Z" fill="#e0e0e0"/><path d="M287.94,167.54h-48.08c-.99022.000015-1.794499-.799795-1.8-1.79v0c0-.47739.189642-.935227.527208-1.272792s.795402-.527208,1.272792-.527208h48.08c.47739,0,.935227.189642,1.272792.527208s.527208.795402.527208,1.272792v0c-.005501.990205-.80978,1.790015-1.8,1.79Z" fill="#e0e0e0"/><path d="M200.44,186.69h-16.57c-.47739,0-.935227-.189642-1.272792-.527208s-.527208-.795402-.527208-1.272792v0c-.002679-.478206.186103-.937601.524251-1.275749s.797543-.52693,1.275749-.524251h16.57c.47739,0,.935227.189642,1.272792.527208s.527208.795402.527208,1.272792v0c-.005465.99184-.80816,1.794535-1.8,1.8Z" fill="#ffc200"/><path d="M276.47,177h-16.58c-.990205-.005501-1.790015-.80978-1.79-1.8v0c-.000015-.99022.799795-1.794499,1.79-1.8h16.58c.99184.005465,1.794535.80816,1.8,1.8v0c-.005465.99184-.80816,1.794535-1.8,1.8Z" fill="#ffc200"/><path d="M227,167.54h-16.58c-.99022.000015-1.794499-.799795-1.8-1.79v0c0-.47739.189642-.935227.527208-1.272792s.795402-.527208,1.272792-.527208h16.58c.476475-.000007.933291.189953,1.26927.527809s.523392.795723.52073,1.272191v0c0,.98859-.80141,1.79-1.79,1.79Z" fill="#455a64"/><path d="M248.35,177h-37.93c-.99184-.005465-1.794535-.80816-1.8-1.8v0c.005465-.99184.80816-1.794535,1.8-1.8h37.93c.47739,0,.935227.189642,1.272792.527208s.527208.795402.527208,1.272792v0c0,.47739-.189642.935227-.527208,1.272792s-.795402.527208-1.272792.527208Z" fill="#263238"/><path d="M285.56,186.69h-75.22c-.466821-.010489-.91034-.206054-1.232928-.543646s-.497802-.789539-.487072-1.256354v0c-.01073-.466815.164484-.918762.487072-1.256354s.766107-.533157,1.232928-.543646h75.22c.465947.010459.908474.206351,1.229476.544248s.493958.789881.480524,1.255752v0c.022397.968314-.741811,1.772743-1.71,1.8Z" fill="#e0e0e0"/><path d="M247.56,193.54h-37.14c-.99184-.005465-1.794535-.80816-1.8-1.8v0c.005465-.99184.80816-1.794535,1.8-1.8h37.14c.47739,0,.935227.189642,1.272792.527208s.527208.795402.527208,1.272792v0c0,.47739-.189642.935227-.527208,1.272792s-.795402.527208-1.272792.527208Z" fill="#e0e0e0"/><path d="M175.74,165.75c0,1.010681-.819319,1.83-1.83,1.83s-1.83-.819319-1.83-1.83.819319-1.83,1.83-1.83c.485346,0,.950814.192803,1.294005.535995s.535995.808659.535995,1.294005Z" fill="#455a64"/><path d="M175.74,156.74c0,1.010681-.819319,1.83-1.83,1.83s-1.83-.819319-1.83-1.83.819319-1.83,1.83-1.83c.486162-.002679.953188.189264,1.296962.533038s.535717.8108.533038,1.296962Z" fill="#455a64"/><circle r="1.83" transform="translate(173.91 175.13)" fill="#455a64"/><circle r="1.83" transform="translate(173.91 184.89)" fill="#455a64"/><rect width="12.12" height="3.47" rx="0.96" ry="0.96" transform="translate(182.44 154.58)" fill="#455a64"/></g><g><path d="M89.53,439c-8.34,3.63-16.38,4-24,0l-5.57-46.73h34.63Z" fill="#6f4439"/><path d="M92.3,389.57l-1-3.34L65.15,383c-.706881-.084129-1.378393.330384-1.62,1l-1.89,5.51h-3.34v6.05c13.11,2.31,25.66,2.44,37.55,0v-6.05Z" fill="#e0e0e0"/><path d="M92.3,389.57c.079367-.014229.160633-.014229.24,0h.69h2.62.09v.1c0,1.56,0,3.6.06,6.05v.12h-.12c-5.304833,1.110747-10.701312,1.726722-16.12,1.84-7.160942.102654-14.314821-.493502-21.36-1.78h-.14-.22v-6.53h3.6l-.24.17c.63-1.84,1.26-3.64,1.86-5.4.14661-.512493.51283-.933646,1-1.15.243746-.101044.506286-.148779.77-.14.26,0,.46.06.69.08l2.64.33L78,384.41l13.3,1.72h.06v.06c.3,1.05.54,1.88.72,2.48.07.26.13.48.18.65.006326.079875.006326.160125,0,.24-.035788-.062646-.062711-.129954-.08-.2l-.22-.62c-.21-.61-.48-1.43-.84-2.49l.08.07-13.28-1.52-9.59-1.13-2.64-.32c-.398977-.111839-.821023-.111839-1.22,0-.366254.156987-.6394.474427-.74.86l-1.85,5.41-.06.17h-3.52l.26-.26v6.05l-.21-.26h.14c7.014757,1.260917,14.133308,1.853572,21.26,1.77c5.392692-.0887,10.766968-.654237,16.06-1.69l-.12.16c0-2.45,0-4.49.06-6.05l.1.1-2.67-.06h-.67Z" fill="#263238"/><path d="M92,423.52c-9.06,1.46-19,1.25-29.63,0l-1.44-14.17c10.902359,1.225096,21.907641,1.225096,32.81,0Z" fill="#ae7461"/><path d="M75.31,413.9c-1.364541.829202-1.88951,2.550413-1.22,4l.94,2c.675919,1.455638,2.340735,2.167282,3.86,1.65Z" fill="#6f4439"/><path d="M75.94,413.61l3.58,7.7c1.356939-.835089,1.879917-2.54977,1.22-4l-.94-2c-.661444-1.471567-2.32784-2.205472-3.86-1.7Z" fill="#6f4439"/><path d="M92.59,389.66c-.379494.159064-.77515.27642-1.18.35-.76.2-1.88.44-3.28.69-7.299817,1.29341-14.770183,1.29341-22.07,0-1.39-.26-2.51-.5-3.28-.71-.404132-.081231-.799348-.201805-1.18-.36.411285.008681.820385.062333,1.22.16.78.15,1.91.34,3.3.54c7.277307,1.073284,14.672693,1.073284,21.95,0c1.4-.2,2.53-.39,3.3-.53.399806-.09414.809262-.141127,1.22-.14Z" fill="#263238"/></g><g><path d="M110.4,320.16c0,0-5.71,1.23-6.7,5.29s8,101,8.31,103.35c.57,3.71,3.7,8.43,10.74,8.17c6.15-.22,89.86,0,110.93,0c2.81,0,4.49-2.38,4.86-5.22v0l-103.65-6.12Z" fill="#e0e0e0"/><path d="M107.8,323.4l9,104.54c.171885,1.708124,1.593546,3.018113,3.31,3.05l118.45.53-22.76-22.58-76.94-.54-8.23-81.91c-.119777-1.095176-.924268-1.992183-2-2.23l-17.24-4c-.916682-.186035-1.86768.06614-2.571738.681946s-1.080599,1.524765-1.018262,2.458054Z" fill="#e0e0e0"/><path d="M107.8,323.4c-.017742-.169537-.017742-.340463,0-.51.022818-.502984.181809-.990329.46-1.41.452363-.702506,1.177209-1.184529,2-1.33.52992-.069451,1.068558-.025133,1.58.13l1.75.4l9.15,2.1l5.8,1.34c1.157654.220263,2.041803,1.160933,2.19,2.33.11,1.12.23,2.27.35,3.45c1.93,19,4.68,46,8,78.48l-.22-.21l76.95.51h.1l.08.08l22.75,22.57.45.45h-.63-5.25l-86.83-.41-19.5-.1h-4.7c-.78,0-1.54,0-2.34,0-.827302-.051642-1.611439-.387196-2.22-.95-.604205-.556905-.996506-1.306166-1.11-2.12-.09-.77-.14-1.51-.21-2.27-.12-1.5-.25-3-.38-4.47-1-11.82-1.94-22.84-2.79-32.89-1.69-20.11-3.06-36.38-4-47.63-.46-5.62-.82-10-1.06-12.95-.12-1.48-.2-2.6-.26-3.37s-.08-1.15-.08-1.15.06.38.13,1.14.18,1.9.31,3.37c.27,3,.66,7.33,1.16,12.94c1,11.25,2.42,27.52,4.18,47.61.87,10.06,1.83,21.07,2.85,32.89q.19,2.22.39,4.47c.07.75.12,1.52.2,2.25.119173.713287.470735,1.367193,1,1.86.551374.497039,1.258402.78692,2,.82.75,0,1.54,0,2.31,0h4.71l19.5.08l86.82.37h5.25l-.19.44-22.85-22.59.18.08-76.94-.58h-.2v-.2c-3.23-32.48-5.91-59.54-7.79-78.49-.12-1.18-.24-2.33-.35-3.45-.129219-1.072891-.93829-1.938597-2-2.14l-5.8-1.36-9.13-2.17-1.75-.41c-.49325-.159582-1.015149-.210748-1.53-.15-.81267.131018-1.535803.590207-2,1.27-.279314.409412-.444954.885626-.48,1.38-.02.33.01.5-.01.5Z" fill="#263238"/><polygon points="194.5,428.8 205.51,428.8 191.59,410.75 185.06,410.75 194.5,428.8" fill="#263238"/><path d="M111.87,328.12L120.28,419L136,406.5L129.2,330c-.049953-.614921-.519187-1.113223-1.13-1.2l-14.69-2.1c-.398952-.055722-.801661.072371-1.095112.348331s-.446019.670049-.414888,1.071669Z" fill="#263238"/><polygon points="128.7,428.8 140.06,428.8 151.61,410.75 145.07,410.75 128.7,428.8" fill="#263238"/><polygon points="142.65,428.8 153.66,428.8 159.69,410.75 153.15,410.75 142.65,428.8" fill="#263238"/><polygon points="156.12,428.8 167.13,428.8 167.72,410.75 161.19,410.75 156.12,428.8" fill="#263238"/><polygon points="168.62,428.8 179.63,428.8 175.56,410.75 169.03,410.75 168.62,428.8" fill="#263238"/><polygon points="181.64,428.8 192.65,428.8 183.68,410.75 177.15,410.75 181.64,428.8" fill="#263238"/><path d="M205,425.28c0,.09-16.79.16-37.5.16s-37.49-.07-37.49-.16s16.78-.15,37.49-.15s37.5.07,37.5.15Z" fill="#e0e0e0"/><path d="M203,422c0,.09-15.94.16-35.61.16s-35.61-.07-35.61-.16s15.94-.15,35.61-.15s35.61.04,35.61.15Z" fill="#e0e0e0"/><path d="M203,419c0,.17-15,.31-33.5.31s-33.5-.17-33.5-.31s15-.31,33.51-.31s33.49.11,33.49.31Z" fill="#e0e0e0"/><path d="M203.42,416.23c0,.17-14.68.31-32.78.31s-32.79-.14-32.79-.31s14.68-.32,32.79-.32s32.78.14,32.78.32Z" fill="#e0e0e0"/><path d="M205,414.23c0,.17-14.78.31-33,.31s-33-.14-33-.31s14.77-.32,33-.32s33,.14,33,.32Z" fill="#e0e0e0"/><path d="M206.58,412.13c0,.18-15.05.32-33.61.32s-33.62-.14-33.62-.32s15-.31,33.62-.31s33.61.18,33.61.31Z" fill="#e0e0e0"/><path d="M118.44,427.94L139,408.75" fill="#e0e0e0"/><path d="M139,408.75c.1.1-4.42,4.48-10.08,9.78s-10.34,9.52-10.44,9.41s4.41-4.48,10.08-9.79s10.3-9.51,10.44-9.4Z" fill="#263238"/></g><g><path d="M478.51,337.24c0,0-1-10.62-27.46-17.41-12.77-3.28-43.26-4.85-46.71,15-.11.64-15.18,125.27-15.18,125.27h56.37Z" fill="#455a64"/><path d="M469.58,460.06h-26L452.26,338c.64-5.94,6.79-10.23,13.74-9.57l2.33.22c6.94.66,11.35,7.35,11.15,15Z" fill="#455a64"/><path d="M445.53,455.67c-.15,0,1.69-24.07,4.1-53.72s4.48-53.69,4.62-53.68-1.69,24.06-4.1,53.72-4.48,53.69-4.62,53.68Z" fill="#263238"/><path d="M473.52,331.47c-1.198704-.370741-2.421625-.658094-3.66-.86-6.164144-.839932-12.121173,2.575815-14.51,8.32-.446268,1.170813-.813754,2.370155-1.1,3.59-.032049-.333991-.015205-.670871.05-1c.130049-.927955.368339-1.837485.71-2.71c2.28874-6.040661,8.530937-9.618403,14.9-8.54.926496.142332,1.832831.394092,2.7.75.324258.103332.631051.255042.91.45Z" fill="#263238"/><path d="M391.41,178.81c.27-7.15-4.58-8.11-8.31-7.29-4.764163-3.318894-11.175979-2.968409-15.55.85-3.472439-1.895532-7.685302-1.827849-11.095058.178251s-5.515205,5.655742-5.544942,9.611749c-4.018322-.490402-7.899287,1.646862-9.633019,5.304946s-.930782,8.015269,1.993019,10.815054c-4.621109,1.383291-7.329969,6.163877-6.141755,10.838949s5.850952,7.582095,10.571755,6.591051l43.86-29.21c2.63-2.77-.29-3.87-.15-7.69Z" fill="#263238"/><path d="M346.43,217c.899311-19.958284,16.974059-35.880727,36.94-36.59l2-.07c21.43.49,33,19,31.91,40.38l-.56,71.34-.14,13.55-49,11.65-.5-28.24c0,0-20.68-2.46-21.66-23-.51-9.92.18-30.44,1.01-49.02Z" fill="#e8b8a8"/><path d="M366.88,289c9.549367-.335495,18.802032-3.40352,26.66-8.84s-5.81,15-26.39,13.9Z" fill="#6f4439"/><path d="M352.42,237.76c.038016,1.590793,1.338753,2.860454,2.93,2.86.757221.032474,1.495452-.242313,2.047146-.761997s.870064-1.240194.882854-1.998003c-.038016-1.590793-1.338753-2.860454-2.93-2.86-.757967-.035296-1.497805.238544-2.050133.758826s-.869849,1.242452-.879867,2.001174Z" fill="#263238"/><path d="M351,228c.37.36,2.54-1.36,5.7-1.46s5.53,1.39,5.86,1c.16-.18-.23-.86-1.27-1.55-1.399496-.903358-3.04607-1.347339-4.71-1.27-1.643369.048766-3.227714.623617-4.52,1.64-.93.75-1.23,1.45-1.06,1.64Z" fill="#263238"/><path d="M377.81,237.11c.043346,1.592392,1.347019,2.86059,2.94,2.86.757221.032474,1.495452-.242313,2.047146-.761997s.870064-1.240194.882854-1.998003c-.038016-1.590793-1.338753-2.860454-2.93-2.86-.758912-.035254-1.499759.238291-2.053658.758278s-.873642,1.242098-.886342,2.001722Z" fill="#263238"/><path d="M381.23,226.46c.37.37,2.54-1.35,5.7-1.46s5.53,1.4,5.86,1c.16-.18-.23-.86-1.27-1.56-1.402194-.897273-3.046797-1.340723-4.71-1.27-1.641775.057046-3.223627.630992-4.52,1.64-.94.78-1.29,1.49-1.06,1.65Z" fill="#263238"/><path d="M371.65,250.25c0-.18-2-.45-5.16-.75-.81-.05-1.58-.18-1.74-.73-.09626-.831455.064262-1.672453.46-2.41q1-3,2.16-6.23c3-8.86,5.15-16.14,4.79-16.26s-3.08,7-6.08,15.84L364,246c-.470689.991504-.580335,2.116258-.31,3.18.255228.569879.761973.987851,1.37,1.13.452266.104612.915939.151651,1.38.14c3.22.03,5.21-.02,5.21-.2Z" fill="#263238"/><path d="M381,252.1c-.52,0-.4,3.42-3.25,6s-6.51,2.29-6.52,2.77c0,.22.83.64,2.38.62c2.010226-.039844,3.941246-.790993,5.45-2.12c1.456161-1.27598,2.356741-3.069963,2.51-5c.1-1.46-.31-2.3-.57-2.27Z" fill="#263238"/><path d="M380.86,217.44c.41.8,3.1,0,6.41-.09s6.09.52,6.4-.3c.13-.4-.45-1.13-1.63-1.78-1.53868-.807881-3.263714-1.194289-5-1.12-1.700055.034793-3.360215.521451-4.81,1.41-1.05.73-1.55,1.49-1.37,1.88Z" fill="#263238"/><path d="M351.42,219.28c.53.75,2.74.1,5.35.19s4.81.71,5.36,0c.24-.35-.08-1.09-1-1.81-2.582969-1.789732-5.990337-1.845008-8.63-.14-.97.68-1.31,1.4-1.08,1.76Z" fill="#263238"/><path d="M348.07,207.52c0,0,5-13.07,11.07-16.29c7.39-3.91,10.92,4.23,18,2s14.14-6,21.66-.72c8.22,5.77,4.62,10.16,5.44,19.26c3.32,36.92,10.45,47.13,11.75,29.64.14-1.91,5.39-3.62,5.88-11.71.65-10.49.6-23.2-2-30.54-2.19-6.18-5.91-10.38-12.47-14.92-10.36-7.16-24.23-6.83-33.62-5.54s-27.14,12.73-25.71,28.82Z" fill="#263238"/><path d="M414.67,240.87c-.004267-1.525994.616617-2.987157,1.718096-4.043292s2.587436-1.615083,4.111904-1.546708c3.85.23,8.2,2.25,8.22,10.19.06,14.07-14.08,11.22-14.11,10.81s.03-9.52.06-15.41Z" fill="#e8b8a8"/><path d="M417.65,251c.07,0,.25.17.67.36.587887.232282,1.242113.232282,1.83,0c1.48-.55,2.73-2.92,2.78-5.45.035815-1.206914-.199992-2.406453-.69-3.51-.275632-.892903-.970096-1.594834-1.86-1.88-.581362-.152226-1.188198.134336-1.44.68-.19.39-.1.67-.17.7s-.3-.24-.19-.82c.073615-.349098.268463-.660854.55-.88.382654-.297919.869813-.427828,1.35-.36c1.177753.222973,2.152809,1.046269,2.57,2.17.603395,1.21651.898715,2.562619.86,3.92-.07,2.83-1.52,5.49-3.55,6.09-.764192.221895-1.587759.085859-2.24-.37-.44-.33-.51-.65-.47-.65Z" fill="#6f4439"/><path d="M413.43,213.65c-1.78,1.31-3.67,2.66-5.86,3s-4.75-.88-5.2-3.05c-.2-1,0-2.11-.67-2.84-.8-.88-2.21-.55-3.38-.38-4.220999.472501-8.197769-2.070297-9.54-6.1-1,1.6-3.42,1.61-5,.65s-2.69-2.58-4-3.95-3.06-2.58-4.91-2.25c-1,.19-2,.84-3,.79-1.86-.1-2.83-2.23-3.18-4s-.64-4-2.23-4.9-3.35-.27-5,0-3.89,0-4.39-1.65c-.182074-.894478.013327-1.824441.54-2.57c2.222125-3.586646,6.620137-5.172747,10.62-3.83c1.247078-4.83482,5.282731-8.443059,10.22644-9.143363s9.822732,1.645121,12.36356,5.943363c2.933192-2.852138,7.073298-4.094073,11.092061-3.327362s7.410831,3.445658,9.087939,7.177362c3.459852-.987767,7.176588.160629,9.476194,2.927951s2.748228,6.631476,1.143806,9.852049c2.58,1.36,4.83,3.79,5,6.7s-2.58,5.9-5.41,5.24c1.469077,2.352733.752733,5.450923-1.6,6.92s-5.450923.752733-6.92-1.6" fill="#263238"/><path d="M422.23,207.88c.150583.980206-.134302,1.977303-.78,2.73-.661509.921317-1.647848,1.557434-2.76,1.78-1.431715.293941-2.919641-.073448-4.05-1l.59-.11c-.691663,1.340701-1.596817,2.559957-2.68,3.61-.719444.713241-1.567811,1.283344-2.5,1.68-2.483199.939031-5.288649.209614-7-1.82-.599265-.868805-1.020691-1.847603-1.24-2.88-.129849-.361699-.180988-.746951-.15-1.13.06,0,.19.36.45,1c.318735.945777.78811,1.833876,1.39,2.63c1.41,2,5.78,2.85,8.46-.1c1.013684-.993299,1.873182-2.132556,2.55-3.38l.24-.42.36.31c.937819.819418,2.188462,1.185103,3.42,1c.977019-.163789,1.863518-.670866,2.5-1.43.559156-.736029.967002-1.575513,1.2-2.47Z" fill="#455a64"/><path d="M256,392c0,0-26.53-.79-28.12-1.29-2.420187-.540529-4.929813-.540529-7.35,0-1.89.6-9.44,3.28-9.44,3.28l-16,4.27c0,0-16.09,10.49-15.77,12.6s2.09,3.55,5,2.46s17.42-8.65,17.42-8.65l16-1.69c0,0,21.82,7.84,26.23,7.45s15.7-2.3,15.7-2.3s1.59-11.31.79-13.1-4.46-3.03-4.46-3.03Z" fill="#e8b8a8"/><path d="M180.47,420.22c0,0,13.45-14.41,17.17-16.35s24.46-5.35,24.46-5.35s6.64-2.75,9.07-1.78s28.18,4.86,29.31,5-5.5,22.68-5.5,22.68c-6.421523.923332-12.958552.648695-19.28-.81-10.36-2.43-13.93-5.67-13.93-5.67s-3.09211-6.006612-5.62-6.45c-3.737946-.655629-11.06,6.14-11.06,6.14s-1.13,9.38-5.67,8.89l-2.1-1.46l1.62-10.36-6.64,2.75c0,0-5.19,7.78-9.07,6.64s-2.76-3.87-2.76-3.87Z" fill="#e8b8a8"/><path d="M180.47,420.22c-.094915.368662-.128698.750399-.1,1.13.047444.458033.220472.894064.5,1.26.402199.495169.925902.87761,1.52,1.11.721694.355191,1.5369.474148,2.33.34.94009-.256795,1.817963-.702537,2.58-1.31c1.892435-1.525284,3.538431-3.333181,4.88-5.36v0v0l6.63-2.77.27-.12v.29c-.48,3.12-1,6.62-1.59,10.37l-.08-.18l2.1,1.45h-.09c.866296.068965,1.719931-.241116,2.34-.85.659441-.640909,1.186138-1.40547,1.55-2.25.779819-1.78713,1.301703-3.676015,1.55-5.61v-.13l.12-.05l6.32-2.42h.07.07l10.36,2.7v0h.06c2.191215,1.567044,4.604611,2.797336,7.16,3.65c2.660565.945297,5.383844,1.703806,8.15,2.27c2.867449.572759,5.77738.907234,8.7,1c3.008971.108234,6.021534-.059131,9-.5l-.2.18c.46-1.59,1-3.29,1.44-5c1.43-5.1,2.86-10.11,3.89-15.07.129986-.607616.226796-1.221858.29-1.84.010013-.139821.010013-.280179,0-.42c0-.07-.06-.1,0,0v0h-.12l-.93-.14-3.7-.56-7.25-1.14c-4.75-.77-9.36-1.53-13.79-2.37-1.1-.23-2.18-.42-3.28-.75-1.010294-.303448-2.082299-.337918-3.11-.1-2.054319.401261-4.064049,1.00418-6,1.8h-.05c-7.24,1.21-13.87,2.41-19.66,3.79-1.392807.32138-2.765237.725429-4.11,1.21-1.20049.55826-2.304335,1.304284-3.27,2.21-2,1.66-3.66,3.3-5.19,4.78-3.06,3-5.38,5.38-7,7l-1.81,1.87c-.42.42-.64.62-.64.62s.19-.23.59-.67l1.76-1.91c1.57-1.65,3.87-4.09,6.9-7.09c1.52-1.49,3.21-3.15,5.17-4.83.49-.42,1-.85,1.54-1.25.551991-.413239,1.157518-.749643,1.8-1c1.360979-.495073,2.750076-.909131,4.16-1.24c5.8-1.42,12.42-2.64,19.67-3.89h-.05c1.964319-.815168,4.004171-1.434828,6.09-1.85c1.107484-.252672,2.261477-.21478,3.35.11c1,.31,2.12.5,3.21.73c4.41.83,9,1.57,13.78,2.33l7.25,1.13l3.7.57.93.14h.2.11c.134863.090158.219924.23809.23.4.015051.173007.015051.346993,0,.52-.060146.641678-.156971,1.279388-.29,1.91-1,5-2.47,10-3.9,15.11-.49,1.72-1,3.43-1.44,5v.16h-.16c-3.007848.449082-6.051043.616474-9.09.5-2.949784-.082974-5.887107-.417521-8.78-1-2.792028-.566824-5.539242-1.335509-8.22-2.3-1.305647-.464939-2.584305-1.002443-3.83-1.61-1.238261-.583246-2.408628-1.300893-3.49-2.14l.1.05-10.34-2.73h.14l-6.34,2.41.14-.18c-.256896,1.980994-.799185,3.914373-1.61,5.74-.385028.89292-.94622,1.698996-1.65,2.37-.707394.680156-1.671598,1.025814-2.65.95h-.05v0l-2.1-1.46-.1-.07v-.12c.59-3.74,1.15-7.24,1.64-10.36l.23.18-6.65,2.73.06-.05c-1.375299,2.043587-3.062444,3.858956-5,5.38-.791732.613569-1.700227,1.059309-2.67,1.31-.829794.136587-1.68152.003396-2.43-.38-.613039-.247389-1.148361-.654925-1.55-1.18-.28446-.385033-.454321-.842616-.49-1.32-.036718-.409314.039367-.820868.22-1.19Z" fill="#6f4439"/><path d="M221.18,408c-.332245.038089-.667755.038089-1,0-.65-.05-1.59-.14-2.76-.26l-4.08-.46-1.18-.13c-.3873-.064895-.7827-.064895-1.17,0-.848506.1292-1.689659.302771-2.52.52-3.37,1-6.75,1.63-8,3.63-.540376.729103-.946709,1.548541-1.2,2.42-.18.62-.23,1-.26,1-.053572-.334295-.029623-.676429.07-1c.180831-.927885.555685-1.807089,1.1-2.58.376877-.541436.839631-1.017702,1.37-1.41.613715-.43012,1.287675-.767099,2-1c1.584119-.576979,3.196138-1.074269,4.83-1.49.848812-.227322,1.710313-.404297,2.58-.53.430898-.064965.869102-.064965,1.3,0l1.17.16l4.08.56c1.16.17,2.09.32,2.74.43.314999.00323.62801.05035.93.14Z" fill="#6f4439"/><path d="M185.08,415.43c.337873-.403859.709188-.778519,1.11-1.12.75-.69,1.85-1.66,3.24-2.82s3.08-2.52,5-3.93c1-.7,2-1.42,3.14-2.1.579459-.345062,1.176981-.658845,1.79-.94.65201-.253972,1.320142-.464433,2-.63c4.607013-1.115725,9.284422-1.917567,14-2.4l4.26-.53c.518877-.086362,1.043985-.129843,1.57-.13-.502.157479-1.017551.267954-1.54.33l-4.23.69c-3.57.63-8.58,1.07-13.9,2.54-.649367.161186-1.287414.36496-1.91.61-.596028.267941-1.176902.568393-1.74.9-1.11.66-2.14,1.36-3.12,2.05-2,1.38-3.65,2.7-5.07,3.82l-3.34,2.69c-.394014.355754-.815304.68008-1.26.97Z" fill="#6f4439"/><path d="M352.61,321.5c-4.790122,6.775186-9.027136,13.924938-12.67,21.38-4.81,10-20.35,44.05-20.35,44.05l-63.33,3.32.94,24.47c0,0,61.16,21.79,74.85,17.58s28.28-20,28.28-20l6.55-103.2c0,0-5.43-1.01-14.27,12.4Z" fill="#ffc200"/><path d="M365.85,309.35c0,0-16.24,36.83-18.61,52.43-4.71,31-6.29,50.35-6.29,50.35l-5.52,47.93h108.15c0,0,3.58-88.83,1.28-118.61-1.72-22.32-18.82-36.22-25.81-43.85-.42-.46-2.34-6.71-2.34-6.71l-50.4,12.91Z" fill="#ffc200"/><path d="M360.62,314.94c-.023747.121621-.064126.239394-.12.35-.11.25-.24.59-.42,1l-1.61,3.85c-1.39,3.34-3.4,8.19-5.42,14.35-2.348964,7.201307-4.216418,14.550857-5.59,22-1.61,8.41-2.91,17.74-4,27.57-2,19.68-3.79,37.49-5.1,50.41-.67,6.43-1.21,11.64-1.59,15.27-.2,1.78-.35,3.17-.46,4.15-.06.46-.1.81-.13,1.08-.013647.12497-.037052.248681-.07.37-.008855-.123174-.008855-.246826,0-.37c0-.27.05-.63.08-1.09.09-1,.21-2.37.36-4.16.34-3.64.83-8.85,1.43-15.29c1.25-12.9,2.9-30.74,5-50.43c1.08-9.83,2.4-19.18,4-27.6c1.397233-7.475122,3.305035-14.845719,5.71-22.06c2.07-6.15,4.13-11,5.58-14.31.72-1.67,1.31-2.95,1.71-3.81.19-.42.34-.74.46-1c.054772-.096593.114864-.19007.18-.28Z" fill="#263238"/><g opacity="0.3"><path d="M416.81,372.92c-1-9.81-5.41-19.66-13.48-25.32l-65.94,94.16c11.64,6.28,24.57,12.76,37.5,10c7-1.49,13.14-5.59,18.16-10.64c10.43-10.49,16.09-24.78,20.06-39c2.65-9.52,4.69-19.39,3.7-29.2Z"/></g><path d="M424.28,361.55c-8.21,29.07-26.7,64.54-32.38,71.67-8.306127,10.621979-21.016189,16.859119-34.5,16.93-7.44,0-70.32-12.25-89-15.91-3.140298-.622883-5.606845-3.057959-6.27-6.19l-.16-.77-8.35-2.28l4.47-22.51.89-1.25l89.93,2.83v0l26.16-72.87c.5-.83,8.05-25.28,28.54-24.17" fill="#ffc200"/><path d="M403.61,307.05h-.68c-.667082-.01888-1.334695-.00219-2,.05-2.60458.154804-5.162534.760457-7.56,1.79-3.830146,1.746049-7.207245,4.349871-9.87,7.61-3.596584,4.416025-6.404422,9.419388-8.3,14.79v0c-6.61,18.46-15.58,43.54-26.09,72.89l-.05.16h-.17L259,401.52l.22-.11-.89,1.25v-.1c-1.29,6.51-2.66,13.43-4,20.43l-.41,2.08-.19-.31l8.39,2.26.16.05v.15c.244806,1.851456,1.116538,3.563158,2.47,4.85.673916.621883,1.452596,1.119561,2.3,1.47.871144.319996,1.772386.55117,2.69.69l11,2.15l21.5,4.13c14.09,2.67,27.66,5.21,40.61,7.4c3.24.54,6.44,1,9.6,1.5c1.58.2,3.16.42,4.71.49c1.556575.018679,3.11283-.058131,4.66-.23c5.978257-.642022,11.762785-2.496473,17-5.45c4.862074-2.79179,9.164711-6.460391,12.69-10.82c1.591841-2.098342,3.048135-4.296142,4.36-6.58c1.31-2.23,2.55-4.44,3.72-6.61c7.350389-13.725755,13.79093-27.919664,19.28-42.49c1.9-5.16,3.26-9.21,4.12-12c.42-1.37.75-2.42,1-3.14s.34-1.06.34-1.06-.09.36-.29,1.07l-.92,3.16c-.83,2.77-2.16,6.83-4,12-5.427772,14.608867-11.82879,28.837434-19.16,42.59-1.16,2.18-2.4,4.39-3.7,6.63-1.315762,2.30744-2.782278,4.525588-4.39,6.64-3.567414,4.430877-7.932553,8.154982-12.87,10.98-5.281094,2.990485-11.11674,4.872183-17.15,5.53-1.566611.180504-3.14316.260667-4.72.24-1.6-.07-3.17-.29-4.76-.49-3.17-.45-6.38-1-9.62-1.49-13-2.18-26.53-4.71-40.63-7.37l-21.5-4.13-11-2.14c-.948826-.144419-1.880357-.385679-2.78-.72-.9087-.369287-1.742363-.90134-2.46-1.57-1.432198-1.358828-2.359651-3.164363-2.63-5.12l.19.2-8.39-2.26-.23-.07v-.23c.13-.66.28-1.37.42-2.08c1.39-7,2.76-13.92,4-20.43v-.06v0l.89-1.25.08-.11h.29l89.93,2.86-.22.15l26.24-72.84v0c1.915462-5.375183,4.751032-10.376345,8.38-14.78c2.698013-3.277904,6.121572-5.883232,10-7.61c2.415256-1.019503,4.991363-1.605136,7.61-1.73.665918-.044673,1.334082-.044673,2,0Z" fill="#263238"/><path d="M329.1,398.32c-1.194716-2.281381-2.651204-4.415774-4.34-6.36-1.805655-1.823085-3.819492-3.427442-6-4.78.744576.198442,1.450905.5195,2.09.95c1.603821.940784,3.062399,2.109667,4.33,3.47c1.26571,1.36128,2.329855,2.896882,3.16,4.56.362836.676663.61918,1.40522.76,2.16Z" fill="#263238"/><path d="M359.79,421.72c-.09,0-.27-1.15-.79-3-.689292-2.357891-1.680862-4.616654-2.95-6.72-1.28627-2.092111-2.843047-4.005299-4.63-5.69-1.37-1.3-2.33-2-2.28-2.06.263451.097274.509836.235655.73.41.62813.418477,1.229316.876047,1.8,1.37c3.804793,3.303579,6.491513,7.705747,7.69,12.6.185106.732636.315466,1.478026.39,2.23.058073.28283.071569.573001.04.86Z" fill="#263238"/><g opacity="0.3"><path d="M335.8,403.52l5.23.2c.85-20.55,5.08-41,8.7-61.27-9.23,18.86-11.65,40.21-13.93,61.07Z"/></g><path d="M417.3,297.6c-.157459.080807-.325918.138083-.5.17l-1.44.4-5.3,1.41c-4.47,1.19-10.64,2.89-17.5,4.62s-13.13,3.07-17.71,3.82c-2.29.38-4.15.65-5.44.78l-1.49.15c-.172478.024349-.347522.024349-.52,0c.164003-.06219.335474-.102536.51-.12l1.47-.25c1.28-.19,3.13-.52,5.4-.94c4.55-.84,10.8-2.23,17.65-4s13-3.38,17.54-4.48c2.25-.55,4.08-1,5.35-1.25l1.46-.3c.172159-.025953.34697-.029314.52-.01Z" fill="#263238"/></g></svg>
